<svg id="svg" version="1.1" viewBox="3 12 300 64.52954048140043" width="450" height="94.52954048140043" xmlns="http://www.w3.org/2000/svg"><svg xmlns="http://www.w3.org/2000/svg"><defs><clipPath id="clip-1"><rect x="0" y="0" transform="scale(0.14648,0.14656)" width="2048" height="645" fill="none"/></clipPath></defs><g clip-path="url(#clip-1)" fill="none" fill-rule="nonzero" stroke="none" stroke-width="1" stroke-linecap="butt" stroke-linejoin="miter" stroke-miterlimit="10" stroke-dasharray="" stroke-dashoffset="0" font-family="none" font-weight="none" font-size="none" text-anchor="none" style="mix-blend-mode: normal"><path d="M208.12354,33.54626l8.79785,-0.00059c0.8291,3.13604 2.16797,6.32146 3.03809,9.47406c0.71924,2.60682 1.20117,5.16688 1.81494,7.7885c1.14551,-6.62645 2.75244,-10.92161 4.7373,-17.26637l8.81104,0.00425l0.00732,23.88212l-5.66016,0.00879c-0.00146,-4.54973 -0.14648,-10.18941 0.09961,-14.65486c0.05566,-1.49445 0.07324,-2.69519 0.01758,-4.18729c-1.81055,6.96001 -3.49072,12.04013 -5.68213,18.83585l-4.75195,0.00205c-1.70508,-5.17612 -3.5625,-10.33479 -4.92334,-15.61452c-0.25342,-0.97827 -0.5083,-2.02821 -0.86719,-2.96896c0.00146,2.47975 0.15527,4.99922 0.17871,7.47809c0.03662,3.6972 0.0249,7.40745 0.0249,11.10554l-5.64258,0.00572z" fill="#12192c"/><path d="M105.4582,33.31837c2.38843,-0.32741 5.68931,0.26483 7.6708,1.62649c2.78262,1.91213 3.6082,3.9399 4.26958,7.02684c-1.7896,0.08193 -3.90132,0.03547 -5.71465,0.04074c-0.94658,-3.92964 -4.88423,-4.9321 -8.03848,-2.71761c-3.01699,2.11834 -3.04131,8.8868 -0.79951,11.65952c0.83145,1.0495 2.0543,1.71516 3.38672,1.84384c2.09048,0.22057 4.05937,-0.4769 4.97109,-2.45762c0.25195,-0.54739 0.29531,-0.97695 0.69727,-1.29938l5.51587,0.02242c-2.58384,12.48274 -20.15625,11.15903 -21.71353,-1.01901c-0.92622,-7.2436 1.83281,-13.58353 9.75483,-14.72624z" fill="#12192c"/><path d="M125.69487,39.52419c5.00361,-1.15297 9.98789,1.99303 11.10234,7.00764c1.11445,5.01476 -2.06777,9.97748 -7.08823,11.05439c-4.96685,1.06533 -9.86279,-2.07716 -10.96523,-7.03813c-1.10259,-4.96112 2.00112,-9.8831 6.95112,-11.0239z" fill="#12192c"/><path d="M127.48887,43.57226c1.67227,0.06097 2.83506,0.86733 3.28271,2.47345c0.76143,2.73198 0.55078,6.45835 -2.52817,7.47458c-4.99819,0.09658 -5.1041,-9.15691 -0.75454,-9.94803z" fill="#fcfcfc"/><path d="M243.63574,39.45458c2.76855,-0.32316 6.31787,-0.07943 8.38037,2.00857c0.69141,0.69937 1.1748,1.57696 1.39746,2.53515c0.31348,1.32986 0.19189,4.34689 0.18311,5.81379l-0.01611,7.61762l-5.20752,0.00542l0.01758,-2.64639c-2.42285,3.30326 -6.05859,3.97566 -9.52441,1.73348c-1.93213,-1.82024 -2.32324,-4.87509 -0.89209,-7.14306c1.92773,-2.80218 5.83154,-2.13314 8.38477,-2.78166c4.87646,-1.23826 -1.31543,-5.85204 -3.7251,-1.53709c-1.55273,-0.12003 -3.45996,-0.40816 -5.03174,-0.60162c1.15869,-3.16315 2.71582,-4.34748 6.03369,-5.0042z" fill="#12192c"/><path d="M247.97754,49.43617l0.12598,0.17851c0.15088,1.86597 0.01611,3.20682 -1.91309,4.15051c-1.03564,0.50665 -1.9541,0.34573 -3.00732,-0.05818c-3.24902,-3.18865 2.95605,-3.80331 4.79443,-4.27083z" fill="#fcfcfc"/><path d="M273.78369,39.45736c7.68604,-0.69864 10.54248,3.07316 10.53076,10.3704c-4.00635,0.06903 -8.04492,-0.03913 -12.07617,0.04323c0.06299,0.32492 0.13184,0.64852 0.20654,0.97094c0.76904,3.26061 4.85303,4.13204 6.6665,1.07544c1.06934,0.14758 2.18555,0.33928 3.25635,0.50636l1.74023,0.27523c-1.07959,2.57355 -2.54736,4.07107 -5.34961,4.73806c-3.37939,0.87231 -8.41992,0.13952 -10.34473,-3.21767c-3.31201,-5.7811 -1.48828,-13.14869 5.37012,-14.762z" fill="#12192c"/><path d="M274.7959,43.39859c2.68213,-0.26805 3.72217,0.63606 4.2627,3.2099l-2.1665,0.00557l-4.56592,-0.00176c0.37061,-1.78829 0.78955,-2.47697 2.46973,-3.21371z" fill="#fcfcfc"/><path d="M195.58887,39.4471c0.69287,-0.05144 1.32861,-0.06859 2.01416,-0.08544c4.53516,-0.11182 7.90869,3.03183 8.32324,7.51459c0.09229,0.99073 0.06738,1.96343 0.06006,2.9568c-1.62891,0.01627 -11.10352,-0.1914 -11.80518,0.18847c-0.1377,0.36918 -0.02051,0.65203 0.0498,1.02678c0.52148,2.7755 3.94922,3.47722 5.94727,1.79606c0.22705,-0.19008 0.49658,-0.66141 0.65625,-0.93049c0.99023,0.13762 1.97754,0.29868 2.95898,0.4832l2.05371,0.29429c-1.12207,2.61561 -2.51953,4.0614 -5.45215,4.76883c-9.37939,2.26255 -14.65283,-6.44179 -10.34619,-14.41011c1.06641,-1.97266 3.33105,-3.12241 5.54004,-3.60297z" fill="#12192c"/><path d="M196.46484,43.40972c2.79053,-0.38193 3.65918,0.72092 4.38428,3.18205l-2.17969,0.02257l-4.65527,-0.00733c0.08643,-0.37709 0.19629,-0.74832 0.32813,-1.11149c0.44531,-1.20543 1.0166,-1.57329 2.12256,-2.08581z" fill="#fcfcfc"/><path d="M150.41895,39.5346l5.56055,0.01041l-0.01025,8.01288l0.01025,9.8724l-5.24414,0.00806c0.01465,-1.20529 -0.04248,-2.52577 -0.07471,-3.74059c-0.88477,1.56729 -1.87646,3.21166 -3.75732,3.70439c-3.14766,1.05785 -7.39775,-0.91598 -7.81377,-4.46091c-0.47695,-4.06521 -0.23994,-9.23004 -0.22881,-13.39725c1.70171,-0.06258 3.82354,-0.00381 5.55732,-0.00103l-0.03311,7.0327c-0.0063,1.30568 -0.07368,2.49573 0.09316,3.85578c0.28828,2.5161 3.05068,3.54478 4.90078,1.88649c0.84375,-0.75624 1.08105,-2.21184 1.0752,-3.27219c-0.01611,-3.17121 -0.02637,-6.34066 -0.03516,-9.51114z" fill="#12192c"/><path d="M176.86523,39.45414c4.50879,-0.43791 8.36865,0.0406 10.09717,4.74597c-1.27734,0.31715 -3.5127,0.60499 -4.87646,0.82219c-0.18604,-0.30235 -0.37793,-0.62785 -0.58887,-0.91642c-0.96533,-1.31946 -4.63477,-1.39933 -4.81494,0.60396c0.72656,3.06862 10.2085,0.80108 10.65088,6.23646c0.36475,4.47044 -2.89307,6.21286 -6.77197,6.73124c-4.49121,0.42868 -8.56201,-0.66068 -9.9082,-5.38906c1.72705,-0.23244 3.44971,-0.49712 5.1665,-0.79376c0.98438,2.42406 3.64453,3.29271 5.79785,1.35404c0.09082,-0.08061 0.19775,-0.56542 0.14502,-0.68472c-0.81885,-1.69743 -3.9668,-1.73465 -5.90771,-2.1881c-4.21143,-0.98413 -5.91357,-3.80214 -3.89209,-7.84551c0.75586,-1.51101 3.17285,-2.31546 4.90283,-2.67629z" fill="#12192c"/><path d="M64.19663,34.81413c1.47861,-0.03679 3.06035,0.0085 4.54731,0.02653l-0.00278,21.58674l-4.26724,0.00264c0.02754,-4.82599 0.0145,-9.65227 -0.03926,-14.47797c-1.23662,2.38933 -3.12187,5.42057 -4.50337,7.80536c-0.62915,1.0961 -1.28848,2.17462 -1.97725,3.23423c-0.67031,0.03239 -1.54863,-0.00322 -2.23564,-0.01187c-1.79766,-2.67951 -3.51504,-6.07627 -5.29058,-8.8956c0.76582,-1.25321 1.64399,-2.01458 2.87783,-2.76187l3.5748,6.22561c2.14189,-4.08206 4.99028,-8.66843 7.31616,-12.73379z" fill="#12192c"/><path d="M257.87549,35.2456l4.90869,0.02301l0.00439,4.25222l3.18457,0.01773l0.00293,4.11006l-3.19482,0.01246c-0.00293,2.51815 -0.0293,5.03894 -0.02051,7.55767c0.00879,2.43124 0.94629,2.30447 3.01904,1.94555c0.14063,1.22434 0.46729,2.84541 0.68115,4.08895c-5.18262,1.17818 -9.43652,0.37108 -9.29297,-5.78081c0.05859,-2.53544 0.01465,-5.26361 0.0249,-7.81517l-2.34082,-0.00147v-4.12647l2.33936,0.00029c0.01172,-0.90323 -0.22705,-3.59535 0.20801,-4.22437z" fill="#12192c"/><path d="M33.99009,34.77456c0.12012,-0.01597 0.24067,-0.02755 0.36167,-0.03459c3.89824,-0.22497 6.23408,0.30821 9.19585,2.93789c-0.90703,0.99688 -1.68267,1.77481 -2.65884,2.70574c-0.14268,-0.11754 -0.28652,-0.23347 -0.43169,-0.34778c-1.61279,-1.26933 -3.54199,-1.9221 -5.60127,-1.66636c-1.77993,0.22511 -3.3939,1.15898 -4.47671,2.58996c-2.3647,3.08738 -1.99175,8.07678 1.21245,10.49937c1.76235,1.3325 3.7418,1.46851 5.86582,1.1581c1.67798,-0.48554 2.04434,-0.71139 3.37075,-1.77144c-8.94785,11.60662 -21.25283,-1.08936 -14.41465,-11.60354c1.67637,-2.57765 4.5835,-3.93976 7.57661,-4.46736z" fill="#12192c"/><path d="M167.17969,39.46366c1.14258,-0.12677 1.75635,-0.09204 2.89307,-0.03767c0.00293,1.62107 -0.00146,3.24229 -0.01465,4.86336c-3.37793,-0.58081 -5.82861,0.12032 -5.85352,4.11108c-0.01758,3.00179 0.04248,6.02673 0.0542,9.03087l-5.55176,0.00425c0.02344,-5.96196 -0.04541,-11.94634 0.0293,-17.90565l5.35693,0.01246l-0.01758,3.63829c0.83496,-2.01194 1.12207,-2.80394 3.104,-3.71699z" fill="#12192c"/><path d="M55.47979,34.24402c0.86265,0.30674 4.58232,2.99168 5.51499,3.64518c-1.80234,1.28106 -3.63179,2.52328 -5.48716,3.72608l-0.03354,-1.93016c-9.35522,1.43128 -6.17285,12.62387 -16.42295,16.49987c-2.65225,0.65379 -4.5564,0.46781 -7.13335,-0.09556c14.57695,-0.82658 9.61011,-17.32279 22.58818,-19.77719c0.3271,-0.06199 0.6769,-0.10962 1.00767,-0.15989c-0.02988,-0.61261 -0.02549,-1.28971 -0.03384,-1.90832z" fill="#57ba87"/><path d="M49.04458,46.57082c0.4897,0.55545 0.25005,8.73131 0.24082,9.87255l-4.16689,0.01641c-0.42319,-0.50636 -0.23921,-1.99831 -0.20625,-2.71747c1.87617,-3.04151 2.48408,-3.74835 4.13232,-7.17149z" fill="#57ba87"/><path d="M44.9146,34.76621c1.50044,-0.03693 3.06987,-0.01216 4.57588,-0.01026l1.00415,1.73128c-1.26489,0.79009 -2.1501,1.51746 -3.2187,2.53603c-0.93105,0.98516 -1.59199,2.03187 -2.33408,3.15802c-0.12671,-2.21888 -0.06606,-5.17612 -0.02725,-7.41507z" fill="#57ba87"/></g></svg></svg>